<svg xmlns="http://www.w3.org/2000/svg"><symbol id="space-bubbles" viewBox="0 0 256 256"><path d="M128 2.4l108 62.5v125l-108 62.5-108-62.5v-125L128 2.4z"/><path fill="#fff" d="M67 178.1l-4.7-6.8a1.8 1.8 0 0 1 .2-2.4l17-20.1h-8.4a2 2 0 0 1-2.1-2.1v-14.8a1.9 1.9 0 0 1 2.1-2h11.8a59.3 59.3 0 0 1-2.2-15.6 48.7 48.7 0 0 1 48.5-48.5c26.4 0 48.4 22 48.4 48.5a52.2 52.2 0 0 1-2.3 15.6h11.9a1.9 1.9 0 0 1 2 2v14.8a2 2 0 0 1-2 2.1h-10.5l16.8 20.1a1.9 1.9 0 0 1 0 2.4l-4.7 6.8a2.1 2.1 0 0 1-2.6.6l-9.9-5.1H79.5l-9.9 5.1a2.2 2.2 0 0 1-2.6-.6zm31.1-29.3H84.6l-18 21.3 2.8 4.1 34.6-18.3zm-25-14.8v10.6h112V134zm14.1-4.1H171a51.4 51.4 0 0 0 2.5-15.6 44.4 44.4 0 1 0-88.7 0c0 5.3.4 10.8 2.4 15.6zm19.7 29.3l-19.5 10.3h27.9zm-3.5-10.4l17.2 20.7h14.8l17.2-20.7zm45.7 10.4l-8.4 10.3h27.8zm22.3-10.4h-13.5l-6.1 7.1 34.8 18.3 2.8-3.9z"/></symbol><symbol id="mecha-stilts" viewBox="0 0 256 256"><path d="M126 3.4l108 62.5v125l-108 62.5-108-62.5v-125L126 3.4z"/><path fill="#fff" d="M66.8 174.6a1.9 1.9 0 0 1-2-2.1v-24.8H37.7a2.1 2.1 0 0 1 0-4.1h15.4v-13.4a1.9 1.9 0 0 1 2-2h8a65.1 65.1 0 0 1 62.7-49.9c.2-.2.4-.2.8 0 30.3.2 55.5 21.6 62.3 49.9h8a1.9 1.9 0 0 1 2 2v13.4h15.4a2.1 2.1 0 0 1 0 4.1h-27.1v24.8a1.9 1.9 0 0 1-2 2.1zm-9.6-42.3v11.3h137.6v-11.3zm64.7-49.7c-26.2 1.7-48.1 20.8-54.5 45.6h21.9zm-53 65.1v22.8h55v-22.8zm55-61l-29.4 41.5h29.4zm4.1-4.3v45.8h56.6A60.9 60.9 0 0 0 128 82.4zm0 65.3v22.8h9.3v-22.8zm13.4 0v22.8h41.7v-22.8z"/></symbol><symbol id="super-domes" viewBox="0 0 256 256"><path d="M128 2.4l108 62.5v125l-108 62.5-108-62.5v-125L128 2.4z"/><path fill="#fff" d="M65.3 173.6a2.1 2.1 0 0 1 0-4.1h10.3v-12.9H65.3a2 2 0 0 1-2-2.1v-40.4a1.9 1.9 0 0 1 2-2.1h13.5c1.1-29.1 22.8-45.2 49.2-45.2s48.1 16.1 49.2 45.2h13.5a1.9 1.9 0 0 1 2 2.1v40.4a2 2 0 0 1-2 2.1h-10.3v12.9h10.3a2.1 2.1 0 0 1 0 4.1zm2.1-57.5v36.3h121.2v-36.3zm12.3 40.5v12.9h13.1v-12.9zm3.2-44.6h90.2C172 85.5 152 70.9 128 70.9S84 85.5 82.9 112zm14 44.6v12.9h20.4v-12.9zm24.5 0v12.9h13.2v-12.9zm55.5-14H127a2.1 2.1 0 1 1 0-4.1h49.9a2.1 2.1 0 1 1 0 4.1zm-38.3 14v12.9h20.5v-12.9zm24.6 0v12.9h13.1v-12.9z"/></symbol></svg>